Coordinates
version=1
nRows=6
nColumns=63
inDegrees=yes

Units are S.I. units (second, meters, Newtons, ...)
If the header above contains a line with 'inDegrees', this indicates whether rotational values are in degrees (yes) or radians (no).

endheader
time	pelvis_tilt	pelvis_list	pelvis_rotation	pelvis_tx	pelvis_ty	pelvis_tz	hip_flexion_r	hip_adduction_r	hip_rotation_r	knee_angle_r	knee_angle_r_beta	ankle_angle_r	subtalar_angle_r	mtp_angle_r	hip_flexion_l	hip_adduction_l	hip_rotation_l	knee_angle_l	knee_angle_l_beta	ankle_angle_l	subtalar_angle_l	mtp_angle_l	L5_S1_Flex_Ext	L5_S1_Lat_Bending	L5_S1_axial_rotation	L4_L5_Flex_Ext	L4_L5_Lat_Bending	L4_L5_axial_rotation	L3_L4_Flex_Ext	L3_L4_Lat_Bending	L3_L4_axial_rotation	L2_L3_Flex_Ext	L2_L3_Lat_Bending	L2_L3_axial_rotation	L1_L2_Flex_Ext	L1_L2_Lat_Bending	L1_L2_axial_rotation	L1_T12_Flex_Ext	L1_T12_Lat_Bending	L1_T12_axial_rotation	Abs_r3	Abs_r2	Abs_r1	Abs_t1	Abs_t2	neck_flexion	neck_bending	neck_rotation	arm_flex_r	arm_add_r	arm_rot_r	elbow_flex_r	pro_sup_r	wrist_flex_r	wrist_dev_r	arm_flex_l	arm_add_l	arm_rot_l	elbow_flex_l	pro_sup_l	wrist_flex_l	wrist_dev_l
0.000000	3.079669	-2.619095	93.065869	0.139927	0.566835	0.887975	13.458130	-1.999937	-6.906016	10.571955	0.184515	24.266818	14.239978	0.000000	11.829843	1.208121	4.814920	6.385156	0.111442	17.566731	-10.760566	0.000000	0.345069	0.028309	0.420482	0.640828	0.037651	0.446762	0.566914	0.068830	0.446762	0.394380	0.068830	0.367922	0.320431	0.057727	0.341642	0.197173	0.043850	0.315362	2.464796	0.320235	2.338596	0.000000	0.000000	22.660995	4.207831	14.067683	33.151041	-1.976498	116.070811	34.776611	87.917653	-13.919090	-3.209304	19.522052	-4.550511	68.683462	39.012815	54.069983	-4.235017	12.252319
0.016949	3.213686	-2.309746	94.324975	0.138811	0.567349	0.885704	12.466539	-1.914439	-7.233705	10.048829	0.175385	24.190675	12.883468	0.000000	11.402020	1.260156	6.854151	6.526026	0.113901	16.912870	-11.610834	0.000000	0.343510	0.018759	0.228542	0.637933	0.024950	0.242826	0.564353	0.045611	0.242826	0.392598	0.045611	0.199975	0.318984	0.038254	0.185691	0.196282	0.029058	0.171407	2.453660	0.212209	1.271085	0.000000	0.000000	22.904262	4.388067	12.968260	32.815357	-1.651491	116.271321	34.287668	87.966505	-13.270531	-3.685457	20.289566	-4.428526	70.912566	38.688744	63.156495	-3.178235	12.824853
0.033898	3.312657	-2.064490	95.315730	0.137956	0.567761	0.883917	11.684772	-1.855762	-7.527621	9.630690	0.168087	24.152848	11.891682	0.000000	11.068297	1.303819	8.401522	6.642978	0.115942	16.428454	-12.211336	0.000000	0.342547	0.009471	0.080336	0.636144	0.012596	0.085357	0.562771	0.023027	0.085357	0.391497	0.023027	0.070294	0.318089	0.019313	0.065273	0.195731	0.014670	0.060252	2.446780	0.107136	0.446807	0.000000	0.000000	23.111710	4.517656	11.954175	32.537281	-1.397855	116.411395	33.873140	87.987162	-12.751671	-4.095622	20.950715	-4.310034	72.812901	38.411320	70.632135	-2.329473	13.280365
0.050847	3.380279	-1.877266	96.062815	0.137336	0.568080	0.882568	11.093400	-1.820824	-7.788405	9.307823	0.162452	24.150204	11.227578	0.000000	10.819616	1.339644	9.505301	6.738097	0.117602	16.096170	-12.588646	0.000000	0.342119	0.000543	-0.028266	0.635350	0.000723	-0.030033	0.562068	0.001321	-0.030033	0.391008	0.001321	-0.024733	0.317692	0.001108	-0.022967	0.195487	0.000842	-0.021200	2.443723	0.006147	-0.157210	0.000000	0.000000	23.285805	4.601902	11.023994	32.311648	-1.209775	116.494152	33.527599	87.981869	-12.348569	-4.444204	21.512561	-4.195799	74.406420	38.177400	76.634406	-1.669318	13.629205
0.067797	3.420248	-1.742015	96.590915	0.136924	0.568316	0.881614	10.672993	-1.806545	-8.016703	9.070514	0.158310	24.179607	10.854115	0.000000	10.646918	1.368165	10.213754	6.813470	0.118917	15.898704	-12.769336	0.000000	0.342165	-0.007923	-0.101397	0.635435	-0.010538	-0.107734	0.562144	-0.019264	-0.107734	0.391061	-0.019264	-0.088722	0.317735	-0.016157	-0.082385	0.195513	-0.012273	-0.076047	2.444053	-0.089626	-0.563937	0.000000	0.000000	23.429013	4.646108	10.176286	32.133292	-1.081440	116.522712	33.245615	87.952870	-12.047281	-4.735612	21.982164	-4.086585	75.715075	37.983842	81.300810	-1.178359	13.881722
0.084746	3.436261	-1.652675	96.924712	0.136694	0.568479	0.881010	10.404122	-1.809842	-8.213158	8.909049	0.155492	24.237926	10.734251	0.000000	10.541148	1.389914	10.575149	6.871181	0.119925	15.818742	-12.779980	0.000000	0.342625	-0.015828	-0.143184	0.636289	-0.021052	-0.152133	0.562899	-0.038485	-0.152133	0.391586	-0.038485	-0.125286	0.318162	-0.032277	-0.116337	0.195776	-0.024518	-0.107388	2.447337	-0.179052	-0.796348	0.000000	0.000000	23.543803	4.655576	9.409615	31.997048	-1.007035	116.500195	33.021760	87.902411	-11.833866	-4.974253	22.366586	-3.983156	76.760820	37.827503	84.768849	-0.837182	14.048266
